<?xml version="1.0" encoding="UTF-8" standalone="no"?>
<svg
   width="1176.2048"
   height="1852.8113"
   viewBox="0 0 90.688217 142.8562"
   version="1.1"
   id="svg50"
   sodipodi:docname="comune-torino.svg"
   inkscape:version="1.3 (0e150ed, 2023-07-21)"
   xmlns:inkscape="http://www.inkscape.org/namespaces/inkscape"
   xmlns:sodipodi="http://sodipodi.sourceforge.net/DTD/sodipodi-0.dtd"
   xmlns="http://www.w3.org/2000/svg"
   xmlns:svg="http://www.w3.org/2000/svg">
  <defs
     id="defs50" />
  <sodipodi:namedview
     id="namedview50"
     pagecolor="#505050"
     bordercolor="#eeeeee"
     borderopacity="1"
     inkscape:showpageshadow="0"
     inkscape:pageopacity="0"
     inkscape:pagecheckerboard="0"
     inkscape:deskcolor="#505050"
     inkscape:zoom="0.20395904"
     inkscape:cx="603.06228"
     inkscape:cy="1627.7779"
     inkscape:window-width="2000"
     inkscape:window-height="1257"
     inkscape:window-x="0"
     inkscape:window-y="44"
     inkscape:window-maximized="1"
     inkscape:current-layer="svg50" />
  <path
     fill-rule="evenodd"
     clip-rule="evenodd"
     fill="#ffffff"
     d="M 0,0 H 90.628152 V 142.8562 H 0 Z"
     id="path1"
     style="stroke-width:0.590301" />
  <g
     id="g50"
     transform="translate(0.03003267,2.3303508)">
    <path
       d="m 45.315076,130.79725 c 28.052,-16.921 36.935,-47.528 36.935,-65.844 0,-10.542 -1.129,-17.305 -2.273,-24.697 -4.383,0.898 -7.562,1.379 -15.1,1.379 -7.664,0 -13.76,-1.798 -19.562,-1.798 -5.807,0 -11.904,1.798 -19.563,1.798 -7.538,0 -10.715,-0.481 -15.105,-1.379 -1.1409999,7.392 -2.2709999,14.154 -2.2709999,24.697 -0.001,18.316 8.8839999,48.923 36.9389999,65.844 z"
       fill-rule="evenodd"
       clip-rule="evenodd"
       fill="#4375b0"
       id="path2"
       sodipodi:nodetypes="cscsssccc" />
    <path
       d="m 70.578076,16.14125 a 3.445,3.445 0 0 1 3.447,-3.443 3.436,3.436 0 0 1 3.432,3.443 3.436,3.436 0 0 1 -3.432,3.439 3.446,3.446 0 0 1 -3.447,-3.439 z"
       fill-rule="evenodd"
       clip-rule="evenodd"
       id="path3" />
    <path
       d="m 71.000076,15.02325 a 2.477,2.477 0 0 1 2.484,-2.48 2.48,2.48 0 0 1 2.484,2.48 2.484,2.484 0 1 1 -4.968,0 z"
       fill-rule="evenodd"
       clip-rule="evenodd"
       fill="#ffffff"
       id="path4" />
    <path
       d="m 66.520076,13.32825 c 0,-1.897 1.549,-3.4430004 3.447,-3.4430004 1.898,0 3.439,1.5460004 3.439,3.4430004 0,1.902 -1.541,3.437 -3.439,3.437 -1.898,0 -3.447,-1.534 -3.447,-3.437 z"
       fill-rule="evenodd"
       clip-rule="evenodd"
       id="path5" />
    <path
       d="m 66.943076,12.21825 a 2.485,2.485 0 1 1 2.479,2.483 2.483,2.483 0 0 1 -2.479,-2.483 z"
       fill-rule="evenodd"
       clip-rule="evenodd"
       fill="#ffffff"
       id="path6" />
    <path
       d="m 60.469076,10.99425 a 3.4415,3.4415 0 1 1 6.883,0 3.44,3.44 0 0 1 -3.436,3.445 3.445,3.445 0 0 1 -3.447,-3.445 z"
       fill-rule="evenodd"
       clip-rule="evenodd"
       id="path7" />
    <path
       d="m 60.889076,9.8852496 a 2.489,2.489 0 0 1 2.484,-2.488 2.4875002,2.4875002 0 1 1 0,4.9750004 2.483,2.483 0 0 1 -2.484,-2.4870004 z"
       fill-rule="evenodd"
       clip-rule="evenodd"
       fill="#ffffff"
       id="path8" />
    <path
       d="m 51.055076,9.2632496 a 3.4430001,3.4430001 0 1 1 6.886,-0.002 3.4430001,3.4430001 0 0 1 -6.886,0.002 z"
       fill-rule="evenodd"
       clip-rule="evenodd"
       id="path9" />
    <path
       d="m 51.475076,8.1522496 a 2.482,2.482 0 0 1 2.484,-2.483 c 1.375,0 2.49,1.11 2.49,2.483 a 2.484,2.484 0 0 1 -2.49,2.4820004 2.481,2.481 0 0 1 -2.484,-2.4820004 z"
       fill-rule="evenodd"
       clip-rule="evenodd"
       fill="#ffffff"
       id="path10" />
    <path
       d="m 40.661076,8.7892496 a 3.441,3.441 0 1 1 3.441,3.4430004 3.441,3.441 0 0 1 -3.441,-3.4430004 z"
       fill-rule="evenodd"
       clip-rule="evenodd"
       id="path11" />
    <path
       d="m 41.077076,7.6762496 a 2.483,2.483 0 0 1 2.48,-2.486 2.492,2.492 0 0 1 2.495,2.486 2.492,2.492 0 0 1 -2.495,2.4840004 2.484,2.484 0 0 1 -2.48,-2.4840004 z"
       fill-rule="evenodd"
       clip-rule="evenodd"
       fill="#ffffff"
       id="path12" />
    <path
       d="m 12.357076,16.14125 a 3.443,3.443 0 0 1 3.443,-3.443 3.444,3.444 0 0 1 3.446,3.443 3.445,3.445 0 0 1 -6.889,0 z"
       fill-rule="evenodd"
       clip-rule="evenodd"
       id="path13" />
    <path
       d="m 12.778076,15.02325 a 2.48,2.48 0 0 1 2.484,-2.48 2.4835,2.4835 0 1 1 0,4.967 2.486,2.486 0 0 1 -2.484,-2.487 z"
       fill-rule="evenodd"
       clip-rule="evenodd"
       fill="#ffffff"
       id="path14" />
    <path
       d="m 16.086076,13.32825 a 3.445,3.445 0 0 1 3.44,-3.4430004 3.446,3.446 0 0 1 3.443,3.4430004 3.438,3.438 0 0 1 -3.443,3.437 3.436,3.436 0 0 1 -3.44,-3.437 z"
       fill-rule="evenodd"
       clip-rule="evenodd"
       id="path15" />
    <path
       d="m 16.503076,12.21825 a 2.488,2.488 0 1 1 4.973,0 2.483,2.483 0 0 1 -2.488,2.483 2.484,2.484 0 0 1 -2.485,-2.483 z"
       fill-rule="evenodd"
       clip-rule="evenodd"
       fill="#ffffff"
       id="path16" />
    <path
       d="m 21.644076,10.99425 a 3.45,3.45 0 0 1 3.446,-3.4430004 3.4440002,3.4440002 0 0 1 0,6.8880004 3.447,3.447 0 0 1 -3.446,-3.445 z"
       fill-rule="evenodd"
       clip-rule="evenodd"
       id="path17" />
    <path
       d="m 22.061076,9.8852496 a 2.494,2.494 0 0 1 2.486,-2.488 2.492,2.492 0 0 1 2.488,2.488 2.487,2.487 0 1 1 -4.974,0 z"
       fill-rule="evenodd"
       clip-rule="evenodd"
       fill="#ffffff"
       id="path18" />
    <path
       d="m 30.234076,9.2632496 c 0,-1.9 1.543,-3.444 3.445,-3.444 a 3.444,3.444 0 0 1 0,6.8870004 3.447,3.447 0 0 1 -3.445,-3.4430004 z"
       fill-rule="evenodd"
       clip-rule="evenodd"
       id="path19" />
    <path
       d="m 30.652076,8.1522496 a 2.482,2.482 0 0 1 2.484,-2.483 2.485,2.485 0 0 1 2.489,2.483 2.484,2.484 0 0 1 -2.489,2.4820004 2.48,2.48 0 0 1 -2.484,-2.4820004 z"
       fill-rule="evenodd"
       clip-rule="evenodd"
       fill="#ffffff"
       id="path20" />
    <path
       d="m 19.075076,20.02425 c 0.243,-0.231 1.057,0.38 1.448,0.793 a 114.447,114.447 0 0 0 5.505,5.607 c 0.301,0.295 0.594,0.694 0.27,0.756 -0.308,0.059 -0.889,-0.337 -1.132,-0.552 a 112.467,112.467 0 0 1 -5.408,-5.198 c -0.51,-0.534 -0.921,-1.176 -0.683,-1.406 z"
       fill-rule="evenodd"
       clip-rule="evenodd"
       id="path21" />
    <path
       d="m 17.523076,18.95625 c 0.17,-0.237 0.359,-0.475 0.567,-0.702 0.273,-0.234 1.09,0.34 1.561,0.873 0.583,0.673 0.87,1.306 0.604,1.543 a 5.916,5.916 0 0 0 -0.631,0.515 c -0.229,0.176 -0.936,-0.354 -1.306,-0.732 a 0.289,0.289 0 0 1 -0.027,-0.029 c -0.649,-0.533 -0.964,-1.011 -0.792,-1.24 0.001,-0.078 -0.009,-0.171 0.024,-0.228 z m 4.416,-0.838 c 0.427,-0.205 1.336,0.386 1.862,1.068 2.083,2.789 3.841,4.972 5.325,6.714 0.312,0.379 0.422,0.808 -0.011,0.857 -0.412,0.047 -1.018,-0.333 -1.34,-0.664 a 125.432,125.432 0 0 1 -5.476,-6.271 c -0.578,-0.73 -0.811,-1.478 -0.36,-1.704 z"
       fill-rule="evenodd"
       clip-rule="evenodd"
       id="path22" />
    <path
       d="m 19.981076,16.69525 c 0.396,-0.255 0.82,-0.51 1.261,-0.749 0.455,-0.208 1.432,0.339 2.029,1.197 0.628,0.905 0.656,1.629 0.199,1.841 a 17.92,17.92 0 0 0 -1.25,0.536 c -0.386,0.154 -1.202,-0.326 -1.735,-0.972 -0.656,-0.8 -0.88,-1.566 -0.504,-1.853 z m 7.13,-0.443 c 0.614,-0.167 1.648,0.447 2.173,1.41 1.712,3.319 3.111,5.827 4.264,7.785 0.266,0.471 0.134,0.899 -0.396,0.934 -0.504,0.038 -1.143,-0.342 -1.463,-0.766 a 151.07,151.07 0 0 1 -4.793,-7.395 c -0.554,-0.949 -0.46,-1.79 0.215,-1.968 z"
       fill-rule="evenodd"
       clip-rule="evenodd"
       id="path23" />
    <path
       d="m 24.864076,14.38025 a 39.91,39.91 0 0 1 2.147,-0.682 c 0.652,-0.154 1.805,0.427 2.361,1.615 0.53,1.158 0.168,1.919 -0.47,2.088 -0.68,0.145 -1.348,0.3 -1.994,0.47 -0.534,0.121 -1.511,-0.355 -2.111,-1.297 -0.667,-1.071 -0.546,-1.938 0.067,-2.194 z m 9.886,0.416 c 0.793,-0.095 1.87,0.578 2.188,1.766 0.9,3.722 1.62,6.468 2.205,8.579 0.131,0.534 -0.238,0.949 -0.831,0.967 -0.576,0.025 -1.212,-0.352 -1.441,-0.869 -0.828,-2.06 -1.843,-4.734 -3.106,-8.324 -0.375,-1.158 0.156,-2.009 0.985,-2.119 z"
       fill-rule="evenodd"
       clip-rule="evenodd"
       id="path24" />
    <path
       d="m 32.549076,12.45325 c 0.976,-0.169 1.97,-0.314 2.987,-0.439 0.823,-0.072 2.048,0.604 2.322,2.044 0.253,1.352 -0.533,2.077 -1.292,2.175 -0.898,0.091 -1.783,0.19 -2.654,0.305 -0.683,0.062 -1.789,-0.457 -2.251,-1.667 -0.521,-1.344 0.073,-2.243 0.888,-2.418 z m 11.608,1.708 c 0.887,-0.006 1.806,0.766 1.772,2.037 -0.217,3.86 -0.384,6.689 -0.519,8.845 -0.052,0.554 -0.612,0.953 -1.22,0.96 -0.609,0 -1.169,-0.393 -1.237,-0.947 -0.146,-2.158 -0.33,-4.977 -0.559,-8.824 -0.034,-1.258 0.869,-2.056 1.763,-2.071 z"
       fill-rule="evenodd"
       clip-rule="evenodd"
       id="path25" />
    <path
       d="m 42.469076,11.46725 a 76.198,76.198 0 0 1 3.382,-0.049 c 0.908,0.037 1.965,0.846 1.799,2.364 -0.141,1.39 -1.225,2.027 -2.004,2.046 -0.991,0 -1.984,0.01 -2.967,0.034 -0.77,-0.005 -1.846,-0.617 -1.993,-1.997 -0.154,-1.498 0.879,-2.34 1.783,-2.398 z m 11.265,3.1 c 0.854,0.085 1.42,0.931 1.033,2.132 a 260.633,260.633 0 0 1 -3.158,8.477 c -0.236,0.524 -0.885,0.911 -1.469,0.895 -0.602,-0.018 -0.986,-0.427 -0.859,-0.97 a 436.583,436.583 0 0 0 2.199,-8.698 c 0.333,-1.214 1.444,-1.917 2.254,-1.836 z"
       fill-rule="evenodd"
       clip-rule="evenodd"
       id="path26" />
    <path
       d="m 52.924076,11.76725 c 1.055,0.102 2.086,0.226 3.105,0.365 0.828,0.152 1.473,1.04 0.932,2.433 -0.498,1.264 -1.648,1.805 -2.35,1.757 a 99.02,99.02 0 0 0 -2.744,-0.256 c -0.777,-0.078 -1.594,-0.785 -1.33,-2.161 0.276,-1.482 1.533,-2.185 2.387,-2.138 z m 8.857,4.108 c 0.703,0.166 0.84,1.008 0.246,2.01 -2.016,3.238 -3.66,5.704 -5.012,7.626 -0.332,0.458 -1.01,0.833 -1.525,0.799 -0.545,-0.033 -0.699,-0.458 -0.434,-0.949 1.178,-2 2.621,-4.574 4.416,-8.002 0.565,-1.012 1.667,-1.635 2.309,-1.484 z"
       fill-rule="evenodd"
       clip-rule="evenodd"
       id="path27" />
    <path
       d="m 61.875076,13.25225 c 0.797,0.201 1.574,0.412 2.316,0.642 0.646,0.247 0.805,1.126 0.074,2.26 -0.654,1.011 -1.695,1.487 -2.266,1.377 a 56.605,56.605 0 0 0 -2.121,-0.447 c -0.662,-0.153 -1.07,-0.909 -0.508,-2.119 0.599,-1.258 1.825,-1.849 2.505,-1.713 z m 5.525,4.437 c 0.48,0.213 0.262,0.988 -0.369,1.763 a 149.609,149.609 0 0 1 -5.836,6.533 c -0.346,0.349 -0.988,0.735 -1.424,0.687 -0.449,-0.055 -0.363,-0.474 -0.031,-0.877 1.557,-1.798 3.406,-4.059 5.629,-6.971 0.602,-0.748 1.578,-1.339 2.031,-1.135 z"
       fill-rule="evenodd"
       clip-rule="evenodd"
       id="path28" />
    <path
       d="m 68.141076,15.41825 c 0.49,0.241 0.961,0.49 1.396,0.747 0.414,0.288 0.199,1.081 -0.529,1.938 -0.607,0.71 -1.484,1.186 -1.902,1.039 a 21.168,21.168 0 0 0 -1.369,-0.533 c -0.482,-0.204 -0.482,-0.942 0.189,-1.899 0.67,-0.933 1.726,-1.482 2.215,-1.292 z m 2.467,4.19 c 0.271,0.237 -0.156,0.897 -0.723,1.47 a 126.116,126.116 0 0 1 -5.832,5.429 c -0.283,0.239 -0.896,0.637 -1.223,0.58 -0.346,-0.061 -0.062,-0.47 0.271,-0.785 a 126.38,126.38 0 0 0 5.906,-5.849 c 0.46,-0.466 1.333,-1.077 1.601,-0.845 z"
       fill-rule="evenodd"
       clip-rule="evenodd"
       id="path29" />
    <path
       d="m 71.676076,17.75025 c 0.238,0.234 0.455,0.47 0.652,0.715 0.186,0.292 -0.227,0.961 -0.852,1.582 -0.434,0.436 -1.195,0.944 -1.455,0.771 a 11.638,11.638 0 0 0 -0.719,-0.529 c -0.287,-0.223 -0.006,-0.878 0.641,-1.6 0.545,-0.602 1.44,-1.173 1.733,-0.939 z m -46.131,8.818 c 0,0 11.259,-1.381 19.565,-1.381 7.707,0 19.169,1.327 19.169,1.327 a 2.02,2.02 0 0 1 0,4.039 c 0,0 -11.324,-1.323 -19.255,-1.323 -7.792,0 -19.479,1.374 -19.479,1.374 a 2.016,2.016 0 0 1 -2.018,-2.019 c 0,-1.118 0.899,-2.017 2.018,-2.017 z"
       fill-rule="evenodd"
       clip-rule="evenodd"
       id="path30" />
    <path
       d="m 25.174076,30.26725 c 0,0 12.103,-0.971 19.85,-1.04 7.65,-0.072 19.593,0.65 19.593,0.65 v 5.405 c 0,0 -11.893,-1.323 -19.507,-1.323 -7.734,0 -19.936,1.374 -19.936,1.374 z"
       fill-rule="evenodd"
       clip-rule="evenodd"
       id="path31" />
    <path
       d="m 25.545076,33.99525 c 0,0 11.831,-1.383 19.565,-1.383 7.486,0 19.169,1.328 19.169,1.328 1.117,0 2.018,0.904 2.018,2.021 0,1.114 -0.9,2.021 -2.018,2.021 0,0 0.164,-1.956 -19.169,-1.956 -20.565,0 -19.565,2.008 -19.565,2.008 a 2.017,2.017 0 0 1 -2.018,-2.019 c 0,-1.122 0.899,-2.02 2.018,-2.02 z"
       fill-rule="evenodd"
       clip-rule="evenodd"
       id="path32" />
    <path
       fill-rule="evenodd"
       clip-rule="evenodd"
       fill="#ffffff"
       d="m 42.110076,30.70325 2.922,1.547 2.683,-1.547 -2.683,-1.398 z m -8.77,-0.036 2.807,-0.204 c 0.5,-0.033 0.936,0.344 0.967,0.844 v 0.01 a 0.91,0.91 0 0 1 -0.841,0.964 l -2.806,0.197 a 0.91,0.91 0 0 1 -0.965,-0.84 0.903,0.903 0 0 1 0.838,-0.971 z m -5.115,0.971 c 0,-0.985 0.793,-1.786 1.779,-1.786 a 1.783,1.783 0 0 1 0,3.565 1.782,1.782 0 0 1 -1.779,-1.779 z m 9.814,-0.745 a 1.78,1.78 0 0 1 1.779,-1.778 1.7765,1.7765 0 1 1 0,3.553 c -0.98,0 -1.779,-0.795 -1.779,-1.775 z m 15.518,-0.462 2.803,0.195 a 0.91,0.91 0 0 1 0.848,0.966 0.91,0.91 0 0 1 -0.973,0.84 l -2.801,-0.196 a 0.906,0.906 0 0 1 -0.846,-0.965 0.907,0.907 0 0 1 0.969,-0.84 z m -5.324,0.462 a 1.778,1.778 0 0 1 3.554,0 1.778,1.778 0 0 1 -3.554,0 z m 9.812,0.745 c 0,-0.985 0.795,-1.786 1.775,-1.786 0.98,0 1.783,0.8 1.783,1.786 0,0.974 -0.803,1.779 -1.783,1.779 -0.98,0 -1.775,-0.805 -1.775,-1.779 z"
       id="path33" />
    <path
       d="m 45.631076,90.66225 c 0,0 -0.646,-0.003 -1.338,1.055 -0.688,1.055 -1.248,1.963 -1.343,3.435 -0.091,1.468 0.662,2.745 -0.417,3.602 -1.221,0.973 -7.123,0.383 -8.044,0.334 -0.916,-0.045 -2.501,0.012 -3.05,0.202 -0.557,0.178 -0.647,0.41 -1.104,0.78 a 8.037,8.037 0 0 0 -0.692,0.598 l -1.771,0.265 c 0.211,0.494 -0.332,0.332 -0.332,0.332 l -2.368,2.785 c -1.237,-0.024 -2.171,-0.16 -3.095,-0.75 0,0 1.122,-1.439 2.041,-2.313 l 0.954,-0.557 c 0.479,-0.851 2.751,-2.814 3.096,-3.044 0.409,-0.271 2.228,-0.294 3.667,-0.395 1.31,-0.098 3.381,-0.132 3.381,-0.132 0.495,0.022 1.531,-0.004 1.77,-0.502 l 0.375,-0.838 c 0.336,-0.954 -0.167,-2.293 0,-3.745 0.234,-2.065 0.547,-4.622 1.466,-5.12 1.136,-0.625 2.989,-0.808 4.034,-0.377 -0.38,-0.983 -1.628,-1.658 -2.508,-2.853 -0.485,-0.665 -1.172,-1.762 -1.172,-1.762 -0.642,-0.283 -0.071,-2.088 -0.503,-2.679 0,0 -3.515,-2.262 -5.024,-3.68 0,0 -0.877,-1.733 -1.56,-1.529 -0.556,-0.558 -1.814,-1.765 -1.814,-1.765 -0.734,-0.746 -2.413,-1.338 -2.995,-1.757 0.03,0.816 0.019,1.85 0.062,2.96 1.044,0.687 1.081,2.192 1.039,3.341 0.078,0.307 1.131,1.627 1.517,1.953 -0.443,1.744 -2.785,4.762 -2.785,4.762 -0.682,-0.666 -1.003,-1.155 -1.242,-2.858 -0.484,-0.785 -0.806,-2.299 -0.806,-3.191 0,0 -1.27,-0.632 -1.25,-1.347 0.036,-1.973 0.547,-3.892 0.462,-6.109 -1.339,-0.436 -2.154,-0.314 -3.489,0.042 -0.309,0.979 -0.801,0.95 -1.547,1.854 0.321,0.806 -0.326,2.043 -0.326,2.043 -1.228,0.238 -2.19,0.467 -3.608,0.396 -0.828,-0.045 -2.386,0.046 -2.102,-0.325 0.712,-0.923 1.826,-3.063 1.826,-3.063 l 0.362,-0.515 c 0.164,-0.229 0.472,-0.828 0.72,-0.828 0.668,-1.075 1.603,-1.575 2.364,-1.715 l 1.324,-0.95 5.14,-0.027 c 0.125,-0.634 0.51,-1.276 1.212,-1.438 0,0 2.233,-0.165 3.302,0.542 0,0 0.616,0.273 1.026,0.396 1.021,0.322 1.574,0.492 2.708,0.364 l 0.263,-1.365 c -0.434,-0.462 0.017,-2.878 0.376,-3.891 l -0.726,-0.26 c -0.295,0.795 -0.731,1.046 -1.571,0.985 l -0.859,0.732 c -1.38,-0.732 -2.448,-1.094 -2.727,-2.043 0.401,-0.921 0.719,-4.814 0.239,-6.085 l -0.56,-0.725 c -0.531,-1.132 0.218,-3.236 -0.698,-3.981 l 0.039,-0.223 c 0,0 -3.072,-1.755 -2.366,-4.172 0.682,0.476 1.007,0.805 1.673,1.105 -0.548,-1.105 -0.37,-2.248 -0.37,-2.248 l 2.603,1.46 c 0.826,0.322 2.258,0.124 3.212,-0.16 l 1.403,-0.159 c 0.241,-0.049 4.333,0 7.55,1.01 4.479,1.407 10.022,7.63 11.847,9.258 1.545,0.982 2.576,2.729 3.088,4.363 0.33,1.057 0.648,2.981 1.02,4.899 0.584,3.081 1.211,5.471 1.32,7.944 0.098,2.181 0.16,3.473 0.93,5.516 1.08,2.905 3.881,9.168 6.75,8.735 2.848,-0.427 1.607,-4.479 0.75,-6.138 -1.336,-2.594 -3.02,-5.294 -3.289,-5.979 -0.619,-1.601 -5.131,-7.434 -0.51,-12.594 0.666,-0.737 3.139,-2.349 6.139,-1.058 -0.025,-0.022 2.467,0.88 2.467,0.88 0.719,0.27 1.762,0.746 1.762,0.746 l 0.621,1.107 1.764,0.153 c 0.697,0.963 0.838,2.444 0.842,2.812 0.006,0.361 -0.135,1.013 -0.135,1.013 l -0.266,-0.355 -1.232,-1.544 -0.709,0.305 c 0.732,0.935 0.791,2.18 0.662,3.315 l 0.932,1.011 c 0.258,-0.058 0.791,0.444 0.477,0.57 l -0.367,0.716 -0.199,-0.314 c 0,0 -0.236,-0.951 -1.945,-0.531 -0.402,-0.093 -1.102,-0.178 -1.102,-0.178 -0.123,0.733 -0.576,1.806 -0.576,1.806 l -1.939,1.109 c -0.078,-0.708 -0.264,-2.255 -0.264,-2.255 l -0.131,-0.528 -0.617,-0.441 -0.043,0.135 c -0.801,-0.84 -0.68,-1.69 -0.443,-2.736 h -0.883 c -0.191,-0.257 0.441,-0.419 0.576,-0.399 0.229,-0.699 -0.4,-2.384 -0.4,-2.384 -3.779,-1.902 -4.322,1.899 -4.322,1.899 0,0 0,3.063 0.928,4.679 0.955,1.677 4.203,6.784 4.234,6.838 1.156,1.871 2.93,5.248 1.998,8.542 -0.596,2.128 -3.164,4.697 -3.164,4.697 -1.191,0.307 -1.186,0.339 -1.35,0.767 -0.158,0.433 -0.332,1.022 -0.332,1.341 0,0.918 -0.605,3.465 -2.777,5.594 -1.105,1.079 -2.115,3.353 -2.115,3.353 -0.506,1.29 1.939,3.151 1.691,3.678 -1.143,2.439 -2.928,3.127 -3.92,6.272 0.348,1.84 -0.395,2.22 -1.33,2.949 -0.477,0.374 -1.424,0.753 -1.424,0.753 0.025,0.132 0.35,3.129 0.162,3.186 -0.639,1.282 -3.217,3.336 -4.75,3.415 l 0.564,-5.103 c -0.033,-0.275 0.236,-1.127 0.191,-1.278 1.457,-0.699 3.914,-6.009 4.199,-7.457 l -0.047,-0.088 c 0.32,-1.175 0.541,-2.616 -0.666,-3.29 -0.83,-0.737 -4.592,-3.404 -4.717,-3.634 -0.152,-0.838 -1.174,-3.175 -1.469,-4.005 0,0 -0.17,1.332 -1.092,1.332 -2.65,0 -2.105,-2.224 -2.062,-2.682 0.135,-1.481 1.199,-2.612 1.234,-2.95 0.053,-0.461 -0.443,-1.52 -0.443,-1.52 z"
       fill-rule="evenodd"
       clip-rule="evenodd"
       fill="#f6e546"
       stroke="#000000"
       stroke-width="0.775"
       stroke-miterlimit="2.613"
       id="path34" />
    <path
       d="m 30.243076,53.71025 a 0.98,0.98 0 0 1 0.987,-0.979 0.987,0.987 0 1 1 -0.987,0.979 z m 0,0.212 c 0,-0.431 0.349,-0.785 0.785,-0.785 0.428,0 0.775,0.354 0.775,0.785 a 0.78,0.78 0 1 1 -1.56,0 z"
       fill-rule="evenodd"
       clip-rule="evenodd"
       fill="#ca0088"
       id="path35" />
    <path
       d="m 30.243076,53.71025 a 0.98,0.98 0 0 1 0.987,-0.979 0.987,0.987 0 1 1 -0.987,0.979 z"
       fill-rule="evenodd"
       clip-rule="evenodd"
       id="path36" />
    <path
       d="m 30.243076,53.92225 c 0,-0.431 0.349,-0.785 0.785,-0.785 0.428,0 0.775,0.354 0.775,0.785 a 0.78,0.78 0 1 1 -1.56,0 z"
       fill-rule="evenodd"
       clip-rule="evenodd"
       fill="#f6e546"
       id="path37" />
    <path
       d="m 30.046076,58.55125 c 0.201,0.162 0.275,0.132 0.201,0.421 -0.071,0.293 -0.233,0.489 -0.233,0.489 0,0 -0.36,-0.057 -0.36,0.169 0,0.229 -0.09,0.522 0.069,0.617 0.161,0.103 0.234,0.265 0.558,0.042 0.325,-0.239 0.391,-0.291 0.391,-0.658 0,-0.365 0.034,-0.689 0,-0.948 -0.03,-0.261 0.195,-0.49 -0.131,-0.551 -0.323,-0.067 -0.592,-0.101 -0.622,0.062 -0.037,0.165 -0.078,0.191 0.127,0.357 z m -0.458,2.65 c -0.095,0.127 0.425,0.485 0.692,0.453 0.268,-0.033 0.617,-0.061 0.813,-0.223 0.197,-0.165 2.195,-0.825 2.195,-0.825 0,0 -1.998,0.33 -2.259,0.433 -0.296,0.125 -0.253,0.421 -0.717,0.327 -0.463,-0.1 -0.625,-0.295 -0.724,-0.165 z m 14.206,26.327 c -1.342,-1.598 -2.97,-3.178 -3.44,-4.104 l -1.172,-1.762 c -0.642,-0.283 0.175,-2.206 -0.503,-2.679 -1.926,-1.339 -2.595,-1.842 -5.024,-3.68 -0.381,-0.727 -1.56,-1.529 -1.56,-1.529 -0.556,-0.558 -1.814,-1.765 -1.814,-1.765 -0.734,-0.746 -2.413,-1.338 -2.995,-1.757 l -2.972,-1.76 2.999,0.786 c 0,0 3.433,2.192 3.96,2.449 0.531,0.258 1.15,1.212 2.005,1.725 0.851,0.513 2.523,2.95 3.823,3.314 1.303,0.358 2.725,0.442 3.34,0.442 0.614,0 2.4,-1.008 3.012,-0.557 1.249,0.919 -3.254,0.979 -3.696,2.921 -0.215,0.939 2.777,4.834 3.701,6.03 0.836,1.089 3.571,2.307 3.651,2.725 0.092,0.434 0.271,1.121 0.867,1.55 0.596,0.426 0.896,1.562 0.812,2.588 -0.086,1.028 0.4,3.449 0.4,3.719 0,1.471 1.436,6.408 1.436,6.408 l -3.471,-8.376 c -10e-4,0.002 -1.606,-4.594 -3.359,-6.688 z m -8.635,-35.952 c 0.363,0.459 1.398,-0.01 1.398,-0.01 l 0.625,1.114 c 0,0 -0.18,-1.777 -0.105,-2.22 0.165,-1.014 1.166,-1.485 0.044,-0.954 -1.117,0.526 -1.485,1.146 -2.167,1.316 -0.677,0.183 -1.513,-0.453 -2.301,-0.12 -0.789,0.329 2.141,0.417 2.506,0.874 z m 1.352,18.566 c -0.613,-0.181 -1.454,-0.4 -2.182,-0.549 -1.374,-0.277 -2.205,-0.827 -2.205,-0.827 l 0.555,-1.192 0.517,-1.033 0.261,-1.365 c -0.434,-0.462 0.017,-2.878 0.376,-3.891 0,0 -0.146,-0.792 0.496,-1.528 0.646,-0.729 1.75,-1.375 1.75,-1.375 0,0 0.909,-1.156 1.093,-1.803 0.187,-0.635 0.287,-3.529 0.287,-3.529 0,0 0.681,2.703 -0.095,4.963 0,0 -0.481,0.868 -0.684,1.003 -0.204,0.133 -0.727,0.93 -0.794,1.203 -0.069,0.274 -0.544,1.586 -0.608,2.195 -0.072,0.613 0.198,1.692 0.198,2.485 0,0.795 0.293,1.223 0.544,1.743 0.251,0.524 0.66,0.591 0.93,1 0.272,0.401 1,0.658 1,1.399 v 0.999 l -1,0.07 z"
       fill-rule="evenodd"
       clip-rule="evenodd"
       stroke="#000000"
       stroke-width="0.192"
       stroke-miterlimit="2.613"
       id="path38" />
    <path
       d="m 35.143076,63.56825 c 0.062,-1.339 0.791,-2.197 1.402,-3.075 0.605,-0.886 1.064,-1.003 1.737,-1.542 0.681,-0.543 1.07,-0.929 1.542,-1.675 0.474,-0.746 0.521,-1.084 0.859,-1.807 0.34,-0.728 0.881,-2.467 0.881,-2.467 0,0 -0.562,3.749 -1.016,4.546 -0.455,0.79 -0.978,1.382 -1.793,2.263 -0.808,0.88 -1.194,1.021 -1.941,1.874 -0.747,0.865 -0.93,1.224 -1.269,2.02 -0.34,0.789 -0.472,1.195 -0.402,-0.137 z"
       fill-rule="evenodd"
       clip-rule="evenodd"
       stroke="#000000"
       stroke-width="0.192"
       stroke-miterlimit="2.613"
       id="path39" />
    <path
       d="m 35.611076,65.48825 c 0,0 0.457,-2.327 1.477,-3.329 0.374,-0.369 2.146,-2.006 3.074,-2.669 0.93,-0.654 2.687,-2.739 3.007,-3.414 0.321,-0.674 1.337,-3.141 1.337,-3.141 0,0 -0.475,2.213 -0.538,2.669 -0.07,0.453 -1.002,2.213 -1.877,3.211 -0.885,0.996 -3.335,2.96 -3.675,3.278 -0.333,0.321 -1.67,1.589 -1.808,2.201 -0.134,0.605 -0.134,1.401 -0.134,1.607 0,0.201 0.252,1.06 -0.34,0.993 -0.589,-0.067 -0.725,-1.335 -0.725,-1.335 z m -11.326,4.276 c -1.341,-0.436 -2.156,-0.314 -3.491,0.042 -0.309,0.979 -0.801,0.95 -1.547,1.854 0.321,0.806 -0.326,2.043 -0.326,2.043 -0.744,0.137 -2.704,0.324 -2.704,0.324 l 1.343,-2.791 c 0,0 0.566,0.141 0.767,-0.095 0.207,-0.244 -0.078,-0.809 -0.078,-0.809 0.163,-0.229 1.403,-1.017 1.651,-1.017 0.666,-1.067 1.633,-0.773 2.392,-0.919 l 2.022,0.097 2.294,1.468 z"
       fill-rule="evenodd"
       clip-rule="evenodd"
       stroke="#000000"
       stroke-width="0.192"
       stroke-miterlimit="2.613"
       id="path40" />
    <path
       d="m 27.285076,70.25325 c 0.033,0.816 0.019,1.85 0.062,2.96 1.044,0.687 1.081,2.192 1.039,3.341 0.078,0.307 1.131,1.627 1.517,1.953 -0.156,0.62 -1,2.151 -1,2.151 l -1.281,-2.422 c 0,0 0.234,-1.044 -0.371,-0.735 -0.479,-0.779 1.005,-2.522 -0.012,-3.324 -0.386,-0.305 -1.197,0.274 -1.181,-0.44 0.043,-1.983 0.636,-1.557 0.549,-3.776 z m 16.172,15.351 c -1.954,-1.733 3.489,2.628 4.344,4.183 0.85,1.557 0.9,1.23 0.986,2.68 0.084,1.452 0.311,3.185 0.4,3.719 0.08,0.531 -0.453,-1.848 -0.371,-4.19 0.088,-2.345 0.029,-1.021 0.338,-2.039 0.246,-0.838 0.701,-1.119 1.932,-1.426 0.994,-0.245 2.125,0.187 2.164,-0.583 0.029,-0.489 -0.49,-0.592 -1.588,-0.84 -0.75,-0.17 -1.613,0.054 -2.262,0.34 -0.754,0.33 -1.758,1.42 -1.758,1.42 0,0 -3.433,-2.598 -4.185,-3.264 z m 5.697,12.985 c 0,0 -0.17,1.332 -1.092,1.332 -2.65,0 -2.105,-2.224 -2.062,-2.682 0.135,-1.481 1.199,-2.612 1.234,-2.95 0.053,-0.461 -0.443,-1.52 -0.443,-1.52 z m 16.739,-6.45 c 0,0.92 -0.938,5.57 -3.109,7.699 -1.105,1.079 -2.115,3.353 -2.115,3.353 -0.506,1.29 1.939,3.151 1.691,3.678 -1.143,2.439 -2.486,3.276 -3.92,6.272 0.348,1.84 -0.395,2.22 -1.33,2.949 -0.477,0.374 -1.424,0.753 -1.424,0.753 0.025,0.132 -0.143,3.574 0.162,3.186 -0.275,0.559 -0.68,0.93 -1.586,1.679 l 0.018,-4.036 0.211,-1.188 c -0.041,-0.275 1.424,-0.439 2.307,-1.175 0.922,-1.749 -0.209,-1.577 2.818,-6.083 0,0 1.082,-1.626 1.262,-2.515 0.17,-0.834 -0.586,-2.01 -1.209,-3.055 -1.559,-1.634 3.004,-3.888 4.359,-6.448 1.181,-2.238 1.865,-5.384 1.865,-5.069 z m -16.412,-13.989 c 0,0 -2.918,3.007 -0.502,1.428 0.914,-0.598 3.695,-2.379 4.918,-4.746 0.729,-1.411 1.152,-3.906 1.152,-3.906 0,0 -1.779,3.005 -3.203,4.706 -0.856,1.033 -2.365,2.518 -2.365,2.518 z m 1.378,2.85 c -0.754,0.756 -2.518,2.33 -1.955,1.916 0.551,-0.414 4.637,-2.177 6.033,-4.854 0.775,-1.5 1.084,-3.696 1.084,-4.196 0,-0.494 -1.23,2.715 -2.371,4.22 -0.953,1.253 -1.673,1.798 -2.791,2.914 z m -7.498,-20.527 c 0.375,-0.369 0.649,-0.872 1.579,-1.531 0.929,-0.659 2.335,-2.938 2.677,-3.238 0.404,-0.351 0,0 0,0 0,0 0.129,1.56 -0.748,2.562 -0.879,0.995 -5.389,5.556 -5.389,5.556 0,0 0.865,-2.352 1.881,-3.349 z m -18.415,6.203 c 0.779,0.066 1.157,0.093 1.857,-0.08 0,0 2.159,0.158 3.226,0.867 l 2.095,1.303 0.491,-0.949 -1.612,-0.386 c -0.499,-0.146 -2.157,-0.979 -2.405,-0.979 -0.257,0 -1.475,-0.249 -1.723,-0.249 -0.249,0 -0.76,0.326 -1.187,0.326 -0.428,10e-4 -0.742,0.147 -0.742,0.147 z m 24.587,7.147 c 0,0 -2.93,3.004 -0.512,1.425 0.916,-0.591 3.566,-2.431 4.875,-4.734 1.115,-1.974 1.566,-5.603 1.566,-5.603 0,0 -1.783,4.161 -3.566,6.393 -0.841,1.052 -2.363,2.519 -2.363,2.519 z m -22.562,-24.138 c 0,0 -3.072,-1.755 -2.366,-4.172 0.172,1.364 0.395,1.396 0.94,2.111 0.424,0.556 1.078,0.548 1.319,1.208 0.116,0.314 0.107,0.853 0.107,0.853 z m 1.302,-1.138 c 0,0 -3.077,-1.758 -2.365,-4.177 0.252,1.096 0.511,1.366 1.046,2.115 0.434,0.607 1.132,0.667 1.294,1.391 0.055,0.257 0.025,0.671 0.025,0.671 z"
       fill-rule="evenodd"
       clip-rule="evenodd"
       stroke="#000000"
       stroke-width="0.192"
       stroke-miterlimit="2.613"
       id="path41" />
    <path
       d="m 32.191076,49.29625 c 0,0 0.22,0.389 1.25,0.215 1.034,-0.182 0.968,-0.458 1.64,-1.048 0.658,-0.584 1.46,-1.381 1.963,-1.464 0.508,-0.09 1.237,-0.438 1.324,0.421 0.091,0.862 -0.126,1.556 -1.248,2.087 -1.117,0.526 -1.485,1.146 -2.167,1.316 -0.677,0.183 -1.656,-0.43 -2.445,-0.101"
       fill="none"
       stroke="#000000"
       stroke-width="0.475"
       stroke-miterlimit="2.613"
       id="path42" />
    <path
       d="m 32.400076,49.48425 c 0,0 -0.042,0.113 1.001,0.193 1.133,0.083 1.098,-0.489 1.766,-1.064 0.666,-0.569 1.465,-0.963 1.969,-1.047 0.507,-0.09 1.006,-0.146 0.509,0.366 -0.839,0.867 -0.301,0.485 -0.979,0.906 -1.043,0.655 -0.378,0.552 -1.059,0.737 -0.676,0.173 -0.515,-0.352 -1.308,-0.027 -0.788,0.326 -1.899,-0.064 -1.899,-0.064 z m -1.905,4.694 c 0,-0.24 0.229,-0.434 0.507,-0.434 0.285,0 0.505,0.193 0.505,0.434 0,0.241 -0.22,0.436 -0.505,0.436 -0.278,0 -0.507,-0.195 -0.507,-0.436 z"
       fill-rule="evenodd"
       clip-rule="evenodd"
       stroke="#000000"
       stroke-width="0.192"
       stroke-miterlimit="2.613"
       id="path43" />
    <path
       d="m 30.118076,53.32325 c 0,-0.794 0.582,-1.425 1.304,-1.425 0.729,0 1.313,0.631 1.313,1.425 0,0.783 -0.584,1.42 -1.313,1.42 -0.723,0 -1.304,-0.636 -1.304,-1.42 z"
       fill="none"
       stroke="#000000"
       stroke-width="0.475"
       stroke-miterlimit="2.613"
       id="path44" />
    <path
       d="m 28.517076,53.87725 c 0.218,-0.223 0.754,-0.272 0.959,-0.514 0,-0.912 0.907,-1.751 1.721,-2.613 0.59,0.078 -1.57,1.479 -1.202,2.833 0,0 -2.318,1.133 -1.478,0.294 z m 35.565,18.01 c 0.025,0.06 0.057,0.114 0.092,0.172 0.955,1.677 4.203,6.784 4.234,6.838 1.156,1.871 3.133,5.312 1.998,8.542 -0.648,1.866 -3.076,4.023 -3.076,4.023 -0.961,0.713 -1.006,1.679 -1.006,1.679 0,0 -1.344,0 -0.736,-1.303 1.008,-2.169 1.342,-1.251 2.074,-1.716 0.738,-0.461 1.42,-2.234 1.42,-2.234 0,0 0.676,-1.195 0.676,-2.815 0,-1.619 -0.656,-4.041 -2.061,-6.246 -1.396,-2.209 -1.83,-2.876 -1.83,-2.876 l -1.184,-2.499 z m 4.86,-2.612 c 0.627,0.686 0.84,0.073 1.699,0.375 0.857,0.311 0.223,2.194 -0.469,2.883 l 0.93,0.756 -1.328,0.801 c -0.078,-0.708 -0.264,-2.255 -0.264,-2.255 l -0.131,-0.528 -0.617,-0.441 -0.043,0.135 c -0.801,-0.84 -0.68,-1.69 -0.443,-2.736 0,0 0.041,0.317 0.666,1.01 z m 4.458,2.078 c 0.066,-0.102 -0.215,0.013 -0.137,-0.089 l -0.975,-0.089 c 0,0 0.117,0.076 -0.398,-1.181 -0.508,-1.247 -0.076,-1.762 0.078,-2.201 0.145,-0.438 0.654,-0.219 0.654,-0.219 0,0 0.371,0.068 0,0.581 -0.363,0.522 -0.363,1.038 -0.217,1.625 0.15,0.585 0.995,1.573 0.995,1.573 z m -8.666,-6.103 c -1.086,0.249 -1.488,2.131 -1.488,2.131 0,0 -0.328,2.123 0.504,3.78 0,0 -0.732,-1.116 -1.016,-2.534 -0.316,-1.606 -0.111,-2.892 0.852,-4.14 0.561,-0.745 1.42,-0.886 2.398,-0.998 -1.337,1.579 -1.25,1.761 -1.25,1.761 z m 5.811,0.785 c -0.328,-2.478 -2.551,-2.581 -2.551,-2.581 0,0 1.99,1.103 1.834,3.385 -0.014,0.282 -0.592,0.993 -0.592,0.993 0,0 1.498,-0.338 1.309,-1.797 z m 0.953,-1.478 c 0.232,0.857 0.293,1.009 0.846,1.234 0.551,0.232 1.488,0.795 1.488,0.795 l 0.055,0.375 c 0,0 -0.086,0.137 -1.006,-0.32 -0.918,-0.463 -1.629,-0.678 -1.779,-1.155 -0.157,-0.473 0.17,-1.793 0.396,-0.929 z m -46.302,39.492 2.344,-2.785 c 0,0 -1.171,-0.919 -0.504,-0.919 l 2.607,0.322 c 0,0 0.23,-0.233 0.692,-0.598 0.457,-0.37 0.547,-0.603 1.104,-0.78 0.548,-0.19 2.134,-0.247 3.05,-0.202 0.921,0.049 6.824,0.639 8.044,-0.334 1.079,-0.856 0.326,-2.134 0.417,-3.602 0.095,-1.472 0.655,-2.38 1.343,-3.435 0.693,-1.058 1.338,-1.055 1.338,-1.055 l 1.107,2.02 c -1.63,1.72 -2.217,2.006 -2.446,3.729 -0.069,0.51 0,1.341 0,1.341 -0.083,1.715 -1.016,2.294 -1.343,2.677 a 937.747,937.747 0 0 1 -5.253,-0.329 l -5.208,0.11 c -0.298,0.54 -1.34,1.568 -1.279,1.546 l -1.457,0.263 h -0.97 l -0.707,1.501 c 0.001,0.001 -2.242,0.667 -2.879,0.53 z"
       fill-rule="evenodd"
       clip-rule="evenodd"
       stroke="#000000"
       stroke-width="0.192"
       stroke-miterlimit="2.613"
       id="path45" />
    <path
       d="m 24.945076,66.67625 c 0,0 0.835,-0.054 1.858,-0.08 1.021,-0.021 2.544,0.513 2.635,0.513 0.089,0 2.326,1.575 2.859,1.838 0.533,0.265 3.836,1.17 4.213,1.195 0.392,0.019 1.509,-0.105 1.509,-0.105"
       fill="none"
       stroke="#000000"
       stroke-width="1.142"
       stroke-miterlimit="2.613"
       id="path46" />
    <path
       d="m 24.987076,36.19925 c 2.024,-1.866 18.31,-1.887 20.05,-1.887 1.739,0 18.03,0.021 20.055,1.887 0.162,0.156 0.918,-0.048 0.918,0.384 0,1.986 -6.195,2.652 -7.088,2.734 -3.553,0.333 -8.463,0.544 -13.885,0.544 -1.74,0 -19.129,-0.304 -20.697,-2.271 -0.141,-0.181 0.242,-0.076 0.242,-0.506 a 1.207,1.207 0 0 1 0.405,-0.885 z m 36.63,1.193 c 0,-0.663 -11.123,-1.093 -16.581,-1.093 -2.336,0 -16.579,0.124 -16.579,1.093 0,1.209 14.294,1.077 16.579,1.077 5.458,0 16.581,0.132 16.581,-1.077 z"
       fill-rule="evenodd"
       clip-rule="evenodd"
       id="path47" />
    <path
       d="m 45.315076,130.79725 c 28.052,-16.921 36.935,-47.528 36.935,-65.844 0,-10.542 -1.129,-17.305 -2.273,-24.697 -4.383,0.898 -7.562,1.379 -15.1,1.379 -7.664,0 -13.76,-1.798 -19.562,-1.798 -5.807,0 -11.904,1.798 -19.563,1.798 -7.538,0 -10.715,-0.481 -15.105,-1.379 -1.1409999,7.392 -2.2709999,14.154 -2.2709999,24.697 -0.001,18.316 8.8839999,48.923 36.9389999,65.844 z m 0,-92.857 c 5.802,0 11.898,1.802 19.562,1.802 7.174,0 9.955,-0.342 16.678,-1.754 1.566,10.231 2.594,16.377 2.594,26.966 0,18.57 -8.887,49.461 -36.973,66.925 l -1.861,1.126 c 0,0 0.537,-0.297 0,0 l -1.863,-1.126 c -28.09,-17.464 -36.9729999,-48.355 -36.9729999,-66.925 0,-10.589 1.024,-16.735 2.591,-26.966 6.7229999,1.412 9.5029999,1.754 16.6819999,1.754 7.659,-10e-4 13.756,-1.802 19.563,-1.802 z"
       fill-rule="evenodd"
       clip-rule="evenodd"
       id="path48" />
    <path
       d="m 25.794076,34.51425 c 0,0 16.268,-1.374 23.101,-1.374 -21.85,1.853 -23.101,3.522 -23.101,3.522 a 1.074,1.074 0 0 1 0,-2.148 z m 0,-7.333 c 0,0 16.268,-1.376 23.101,-1.376 -21.85,1.855 -23.101,3.523 -23.101,3.523 a 1.069,1.069 0 0 1 -1.071,-1.072 c 0,-0.591 0.48,-1.075 1.071,-1.075 z"
       fill-rule="evenodd"
       clip-rule="evenodd"
       fill="#f6e546"
       id="path49" />
    <path
       d="m 31.570076,48.06925 c 0,0 0.514,0.303 1.18,0.226 1.035,-0.115 1.125,-0.516 1.936,-0.888 0.813,-0.362 1.81,-0.743 2.316,-0.836 0.506,-0.083 1.279,-0.011 1.366,0.849"
       fill="none"
       stroke="#000000"
       stroke-width="0.475"
       stroke-miterlimit="2.613"
       id="path50" />
  </g>
</svg>
