<?xml version="1.0" encoding="UTF-8" standalone="no"?>
<!-- Created with Inkscape (http://www.inkscape.org/) -->

<svg
   width="200mm"
   height="200mm"
   viewBox="0 0 200 200"
   version="1.1"
   id="svg1"
   xml:space="preserve"
   inkscape:version="1.3 (0e150ed, 2023-07-21)"
   sodipodi:docname="favicon.svg"
   xmlns:inkscape="http://www.inkscape.org/namespaces/inkscape"
   xmlns:sodipodi="http://sodipodi.sourceforge.net/DTD/sodipodi-0.dtd"
   xmlns="http://www.w3.org/2000/svg"
   xmlns:svg="http://www.w3.org/2000/svg"><sodipodi:namedview
     id="namedview1"
     pagecolor="#505050"
     bordercolor="#eeeeee"
     borderopacity="1"
     inkscape:showpageshadow="0"
     inkscape:pageopacity="0"
     inkscape:pagecheckerboard="0"
     inkscape:deskcolor="#505050"
     inkscape:document-units="mm"
     inkscape:zoom="0.68275677"
     inkscape:cx="465.75884"
     inkscape:cy="610.75923"
     inkscape:window-width="2000"
     inkscape:window-height="1257"
     inkscape:window-x="0"
     inkscape:window-y="44"
     inkscape:window-maximized="1"
     inkscape:current-layer="layer1" /><defs
     id="defs1" /><g
     inkscape:label="Layer 1"
     inkscape:groupmode="layer"
     id="layer1"><path
       style="fill:#6f6bff;stroke-width:0.930159;fill-opacity:1"
       d="m 107.26519,179.35377 c -8.639564,-4.9684 -17.481725,-13.49084 -23.871823,-23.0086 -2.582359,-3.84633 -2.046239,-3.5138 -8.859759,-5.49505 -18.796184,-5.46556 -45.467683,-2.29535 -72.1085923,8.57092 -1.2755909,0.5203 -0.4230743,-0.24851 2.2969744,-2.07141 C 25.3557,143.5215 49.372487,137.35857 71.006112,140.34056 c 1.669406,0.23011 3.035287,0.37351 3.035287,0.31868 0,-0.0549 -1.970882,-3.31285 -4.379738,-7.24001 -2.408856,-3.92717 -5.704535,-9.35525 -7.323731,-12.06239 l -2.943993,-4.9221 -6.868289,0.0252 c -14.442788,0.0528 -23.498712,2.06094 -50.182668,11.12763 -1.26819,0.4309 0.7937024,-1.09085 5.0612652,-3.73539 14.5067938,-8.98963 27.9625028,-13.77809 43.7107458,-15.55529 l 3.488799,-0.39371 -3.590613,-6.34127 c -2.888063,-5.100516 -3.514675,-6.432772 -3.202514,-6.808899 0.635068,-0.765207 0.674982,-0.729817 7.032876,6.235589 l 6.11857,6.70323 2.02773,0.17714 c 1.115252,0.0974 3.135201,0.26348 4.488776,0.36895 1.353573,0.10548 3.998204,0.41514 5.876956,0.6881 3.415911,0.49631 3.415911,0.49631 5.269187,-0.3354 5.475543,-2.45729 11.69387,-2.46918 23.472542,-0.045 24.06065,4.95214 35.24694,-1.89325 29.73796,-18.198005 C 125.9799,73.017634 114.50444,70.589046 93.073472,82.144324 79.577434,89.421199 66.886563,92.925551 55.320563,92.569096 49.558329,92.391504 48.567816,92.05208 51.299254,91.19107 61.673558,87.920866 73.122614,80.85478 87.106127,69.091956 97.600529,60.26413 102.50485,56.881567 107.97718,54.696895 145.0006,39.916472 182.64442,109.36686 147.90632,128.36353 l -1.71047,0.93537 2.03506,0.2127 c 12.0937,1.26405 31.02481,-2.1899 45.39784,-8.28272 4.64363,-1.9685 4.80342,-1.94818 2.03065,0.25819 -26.23414,20.87514 -60.71127,22.79929 -100.28895,5.59705 -11.435652,-4.97045 -16.025479,-6.70615 -22.077076,-8.34871 l -2.880932,-0.78197 1.076164,1.25673 c 8.13017,9.49427 15.536472,17.99072 18.457215,21.17398 1.990929,2.16985 4.142874,4.56281 4.782119,5.31768 0.990674,1.16987 1.983679,1.73336 6.72684,3.8172 29.72256,13.0582 56.75134,15.30107 83.00546,6.88787 3.82973,-1.22723 11.17212,-4.1177 13.37168,-5.26403 1.71745,-0.89504 -3.77471,3.4658 -7.62924,6.05773 -21.59555,14.52159 -50.92189,17.24552 -80.14475,7.44411 -2.37807,-0.79762 -4.35844,-1.45021 -4.40079,-1.45021 -0.0424,0 0.42979,1.11214 1.0492,2.47139 2.67113,5.86138 4.87338,13.80796 4.0887,14.75348 -0.55513,0.66887 -0.46778,0.69525 -3.52985,-1.06568 z M 88.079735,56.039746 C 75.312388,52.944522 70.9553,36.922645 80.462381,28.029236 94.103149,15.268969 114.8712,31.151817 106.27807,47.772388 c -3.30342,6.389389 -11.181694,9.968419 -18.198335,8.267358 z"
       id="path1"
       sodipodi:nodetypes="ssssssssscsssscssscsssscssssssscssssscsssssssssssssssss" /></g></svg>
