<?xml version="1.0" encoding="UTF-8" standalone="no"?>
<svg
   width="755.90552"
   height="1163.1301"
   viewBox="0 0 58.28213 89.680127"
   version="1.1"
   id="svg50"
   sodipodi:docname="logo.svg"
   inkscape:version="1.3 (0e150ed, 2023-07-21)"
   xml:space="preserve"
   xmlns:inkscape="http://www.inkscape.org/namespaces/inkscape"
   xmlns:sodipodi="http://sodipodi.sourceforge.net/DTD/sodipodi-0.dtd"
   xmlns:xlink="http://www.w3.org/1999/xlink"
   xmlns="http://www.w3.org/2000/svg"
   xmlns:svg="http://www.w3.org/2000/svg"><defs
     id="defs50"><pattern
       inkscape:collect="always"
       xlink:href="#Strips2_1"
       preserveAspectRatio="xMidYMid"
       id="pattern92"
       patternTransform="scale(2)" /><pattern
       inkscape:collect="always"
       patternUnits="userSpaceOnUse"
       width="1.5"
       height="1"
       patternTransform="translate(0,0) scale(2,2)"
       preserveAspectRatio="xMidYMid"
       id="Strips2_1"
       style="fill:#000000"
       inkscape:stockid="Stripes 12 (2:1)"
       inkscape:isstock="true"
       inkscape:label="Stripes 12 (2:1)">&#10;      <rect
   style="stroke:none"
   x="0"
   y="-0.5"
   width="1"
   height="2"
   id="rect197" />&#10;    </pattern></defs><sodipodi:namedview
     id="namedview50"
     pagecolor="#505050"
     bordercolor="#eeeeee"
     borderopacity="1"
     inkscape:showpageshadow="0"
     inkscape:pageopacity="0"
     inkscape:pagecheckerboard="0"
     inkscape:deskcolor="#505050"
     inkscape:zoom="0.41346141"
     inkscape:cx="1541.8609"
     inkscape:cy="1274.605"
     inkscape:window-width="2000"
     inkscape:window-height="1257"
     inkscape:window-x="0"
     inkscape:window-y="44"
     inkscape:window-maximized="0"
     inkscape:current-layer="g52-1"
     showgrid="false"
     showguides="true"
     inkscape:lockguides="false"><inkscape:page
       x="0"
       y="0"
       width="58.282131"
       height="89.68013"
       id="page2"
       margin="0"
       bleed="0"
       inkscape:export-filename="logo.svg"
       inkscape:export-xdpi="96"
       inkscape:export-ydpi="96" /><sodipodi:guide
       position="53.136851,52.613397"
       orientation="0,-1"
       id="guide4"
       inkscape:locked="false" /></sodipodi:namedview><g
     inkscape:groupmode="layer"
     id="layer4"
     inkscape:label="Layer 4"
     style="display:inline"
     sodipodi:insensitive="true"
     transform="translate(-100.68822,-25.175432)"><path
       style="display:inline;fill:#f1f1f1;fill-opacity:1;stroke:#000000;stroke-width:2.64583;stroke-dasharray:none;stroke-opacity:1"
       d="m 167.3833,383.75567 c 2.59223,-2.53195 -2.49246,-6.86229 -3.11946,-10.05261 -9.20434,-19.55139 -19.12372,-38.73462 -29.31797,-57.78725 -1.9955,-4.35651 -5.08266,-8.53008 -6.39528,-13.00104 -1.97564,-2.38678 0.25725,-6.66964 -2.70571,-7.1258 -2.33768,-2.28092 -3.92041,-7.02671 -5.97007,-10.24823 -4.65629,-5.72542 -7.41232,-13.1861 -11.20797,-19.69868 -21.733394,-41.31349 -43.737531,-82.54057 -65.302601,-123.90765 -4.04602,-12.74623 -7.82226,-25.53973 -12.03026,-38.1682 -3.20766,-2.70497 -7.40433,1.07788 -10.97402,1.4133 -3.12555,1.45664 -8.38351,0.86773 -9.59574,4.70693 4.27573,10.5686 9.47328,21.01975 14.3094,31.4495 3.73675,3.98604 10.22021,3.02384 14.45212,5.72434 24.36969,46.31763 48.739367,92.63525 73.109051,138.95287 -4.1e-4,4.0479 3.55553,7.52406 4.91171,11.35386 0.43686,3.52278 0.58485,4.53779 3.5644,6.65731 1.98951,2.4691 3.92549,4.87556 5.20623,8.01329 12.32859,23.32572 24.46387,46.75124 37.86418,69.48426 0.86462,1.09978 1.32687,3.91983 3.20199,2.2338 z m -16.77515,-31.53489 c -3.55379,2.2651 -4.00495,-5.49231 -6.22503,-7.53554 -6.7361,-12.75041 -13.4722,-25.5008 -20.20831,-38.25121 4.0863,-4.07771 5.44397,0.6326 7.17041,4.15527 6.97604,13.5141 14.53093,27.11002 21.14775,40.57335 -0.53468,0.4658 -1.28692,0.67372 -1.88481,1.05812 z m -24.59494,-47.17251 c -2.9008,3.61174 -7.8686,-3.77081 -3.28176,-4.37658 2.96659,-4.40332 7.6495,1.49105 4.21477,3.87331 l -0.56117,0.30316 z m -2.99549,-4.74312 c -2.55076,3.35122 -7.7462,0.47773 -2.50012,-1.34333 1.88766,-0.8074 7.68406,-5.21356 6.43235,-0.81116 -1.14251,0.93181 -2.65676,1.40688 -3.93224,2.15446 z m -0.90867,-2.3968 c -3.95922,3.85431 -4.60178,-2.84861 -6.57682,-5.31012 -2.08131,-2.97761 -4.50754,-7.47151 0.77669,-8.43466 3.66999,-1.49015 4.25452,4.65984 6.1062,6.8096 1.12343,2.91168 4.94402,5.90238 -0.30607,6.93518 z m -7.06969,-13.57512 c -3.70126,2.56214 -4.16161,-5.30328 -6.40163,-7.44263 -22.815114,-43.42246 -45.630141,-86.84497 -68.445251,-130.26743 4.03229,-4.04718 5.28244,0.87495 7.0168,4.23609 23.26057,44.14905 46.521127,88.2981 69.781701,132.44715 -0.65054,0.34227 -1.30109,0.68456 -1.95163,1.02683 z"
       id="path82"
       transform="matrix(0.29141065,0,0,0.29141066,100.68822,0)" /><path
       style="display:inline;fill:#f1f1f1;fill-opacity:1;stroke:#000000;stroke-width:2.64583;stroke-dasharray:none;stroke-opacity:1"
       d="m 32.616672,383.51968 c -2.59223,-2.53195 2.492467,-6.86229 3.119461,-10.05261 9.204347,-19.55139 19.123724,-38.73462 29.317972,-57.78725 1.995498,-4.35651 5.082666,-8.53008 6.395277,-13.00104 1.975645,-2.38678 -0.257244,-6.66964 2.705718,-7.1258 2.337675,-2.28092 3.920407,-7.02671 5.97007,-10.24823 4.656287,-5.72542 7.412312,-13.1861 11.207964,-19.69868 21.733416,-41.31349 43.737566,-82.54057 65.302636,-123.90765 4.04602,-12.74623 7.82226,-25.53973 12.03026,-38.16821 3.20766,-2.70497 7.40433,1.07788 10.97402,1.41331 3.12555,1.45664 8.38351,0.86772 9.59574,4.70693 -4.27573,10.5686 -9.47328,21.01975 -14.3094,31.4495 -3.73675,3.98604 -10.22021,3.02384 -14.45212,5.72434 -24.36969,46.31763 -48.73938,92.63525 -73.10908,138.95287 4.06e-4,4.0479 -3.555533,7.52406 -4.911718,11.35386 -0.436858,3.52278 -0.584844,4.53779 -3.564392,6.65731 -1.989511,2.4691 -3.925498,4.87556 -5.206233,8.01329 -12.328595,23.32572 -24.463871,46.75124 -37.864177,69.48426 -0.864626,1.09978 -1.32687,3.91983 -3.201998,2.2338 z m 16.775152,-31.53489 c 3.553792,2.2651 4.004957,-5.49231 6.225031,-7.53554 6.736106,-12.75041 13.472206,-25.5008 20.208312,-38.25121 -4.0863,-4.07771 -5.443975,0.6326 -7.170415,4.15527 -6.976037,13.5141 -14.530921,27.11002 -21.147746,40.57335 0.534681,0.4658 1.28692,0.67372 1.884809,1.05812 z m 24.594938,-47.17251 c 2.900805,3.61174 7.868607,-3.77081 3.281767,-4.37658 -2.966588,-4.40332 -7.649506,1.49105 -4.214771,3.87331 l 0.561173,0.30316 z m 2.995493,-4.74312 c 2.550757,3.35122 7.746202,0.47773 2.500119,-1.34333 -1.887659,-0.8074 -7.684057,-5.21356 -6.432352,-0.81116 1.142515,0.93181 2.656768,1.40688 3.932247,2.15446 z m 0.908675,-2.3968 c 3.959218,3.85431 4.601772,-2.84861 6.576812,-5.31012 2.081312,-2.97761 4.507546,-7.47151 -0.776682,-8.43466 -3.66999,-1.49015 -4.254525,4.65984 -6.1062,6.8096 -1.12343,2.91168 -4.944019,5.90238 0.30607,6.93518 z m 7.069683,-13.57512 c 3.701264,2.56214 4.161611,-5.30328 6.401634,-7.44263 22.815133,-43.42246 45.630173,-86.84497 68.445283,-130.26743 -4.03229,-4.04718 -5.28244,0.87495 -7.0168,4.23609 -23.26057,44.14905 -46.52116,88.2981 -69.781731,132.44715 0.650541,0.34227 1.301091,0.68456 1.951632,1.02683 z"
       id="path81"
       transform="matrix(0.29141065,0,0,0.29141066,100.68822,0)" /><path
       id="rect3"
       style="display:inline;opacity:1;fill:#4375b0;stroke:#000000;stroke-width:4;stroke-dasharray:none;stroke-opacity:1"
       d="m 31.075476,163.29151 c 36.496951,3.53011 43.42453,-10.59901 69.958874,-10.47228 26.53434,0.12673 34.18104,12.42409 67.89021,10.47227 C 189.13474,208.88643 200.00002,304.02394 100,352.75549 v 0 C 1.4534014e-5,304.02394 20.138778,184.71248 31.075476,163.29151 Z"
       sodipodi:nodetypes="cscccc"
       inkscape:label="shield"
       transform="matrix(0.29141065,0,0,0.29141066,100.68822,0)" /><path
       id="path78"
       style="display:inline;opacity:1;fill:none;stroke:#000000;stroke-width:1.17372;stroke-dasharray:none;stroke-opacity:1"
       d="m 109.74762,47.631793 c 10.63371,1.043202 12.65213,-3.132169 20.38314,-3.094719 7.73102,0.03745 9.95895,3.671509 19.78042,3.094717 5.88841,13.474 9.0541,41.58859 -20.08179,55.989509 v 0 C 100.6935,89.220381 106.56111,53.962018 109.74762,47.631793 Z"
       sodipodi:nodetypes="cscccc"
       inkscape:label="shield" /><path
       id="path66"
       style="display:inline;opacity:0.100291;mix-blend-mode:multiply;fill:url(#pattern92);fill-opacity:1;fill-rule:nonzero;stroke:none;stroke-width:0;stroke-dasharray:none;stroke-opacity:1"
       d="m 31.075476,163.29151 c 36.496951,3.53011 43.42453,-10.59901 69.958874,-10.47228 26.53434,0.12673 34.18104,12.42409 67.89021,10.47227 C 189.13474,208.88643 200.00002,304.02394 100,352.75549 v 0 C 1.4534014e-5,304.02394 20.138778,184.71248 31.075476,163.29151 Z"
       sodipodi:nodetypes="cscccc"
       inkscape:label="shield"
       transform="matrix(0.29141065,0,0,0.29141066,100.68822,0)" /><path
       style="display:inline;fill:none;stroke:#000000;stroke-width:0.455534;stroke-linecap:square;stroke-dasharray:none;stroke-opacity:1;paint-order:stroke fill markers"
       d="m 110.68899,72.543103 c 0,0 8.50959,-2.343739 12.82005,-1.664182 4.23926,0.66833 10.81461,4.672874 15.74656,4.748928 5.9641,0.09197 11.61371,-3.671861 11.61371,-3.671861"
       id="path65-1"
       sodipodi:nodetypes="cssc" /><path
       style="display:inline;fill:none;stroke:#000000;stroke-width:0.385513;stroke-linecap:square;stroke-dasharray:none;stroke-opacity:1;paint-order:stroke fill markers"
       d="m 114.86081,78.547952 c 0,0 4.65145,-3.341532 16.41281,1.940642 12.39581,5.567111 18.00126,-2.305575 18.48202,-2.485864"
       id="path64"
       sodipodi:nodetypes="csc" /><path
       style="display:none;fill:#f6e546;fill-opacity:1;stroke:#000000;stroke-width:0.417133;stroke-dasharray:none;stroke-opacity:1"
       d="m 132.01027,84.290982 c -1.88484,-1.083919 -3.81388,-2.943204 -5.20796,-5.019632 -0.56338,-0.839127 -0.44642,-0.766583 -1.93288,-1.198819 -4.10063,-1.192384 -9.91938,-0.50076 -15.73145,1.869863 -0.27829,0.113509 -0.0923,-0.05422 0.50112,-0.451908 4.50152,-3.016789 9.7411,-4.361314 14.46076,-3.710756 0.36421,0.0502 0.66219,0.08149 0.66219,0.06953 0,-0.01198 -0.42997,-0.722742 -0.9555,-1.579505 -0.52552,-0.856766 -1.24452,-2.040974 -1.59777,-2.631572 l -0.64227,-1.073824 -1.49841,0.0055 c -3.15088,0.01151 -5.12655,0.449622 -10.94802,2.427641 -0.27667,0.09401 0.17316,-0.237985 1.10419,-0.814924 3.16485,-1.96121 6.10039,-3.005876 9.53608,-3.393597 l 0.76113,-0.08589 -0.78334,-1.383434 c -0.63007,-1.112746 -0.76678,-1.403397 -0.69867,-1.485454 0.13855,-0.166939 0.14725,-0.15922 1.53431,1.360379 l 1.33485,1.462398 0.44238,0.03865 c 0.2433,0.02125 0.68398,0.05748 0.97928,0.08049 0.2953,0.02302 0.87226,0.09057 1.28214,0.15012 0.74523,0.108275 0.74523,0.108275 1.14954,-0.07318 1.19457,-0.53609 2.55118,-0.538682 5.12086,-0.0098 5.24915,1.080376 7.68959,-0.413037 6.48773,-3.970138 -1.27742,-3.780768 -3.78095,-4.310596 -8.45641,-1.789658 -2.94434,1.587546 -5.71302,2.352067 -8.2363,2.274302 -1.25711,-0.03874 -1.4732,-0.112793 -0.8773,-0.300634 2.26329,-0.713438 4.76106,-2.254998 7.81175,-4.821216 2.28949,-1.92591 3.35944,-2.66386 4.5533,-3.140476 8.07715,-3.224545 16.28966,11.926987 8.71108,16.071363 l -0.37317,0.204064 0.44398,0.0464 c 2.6384,0.275772 6.76848,-0.477755 9.90415,-1.806984 1.01306,-0.429455 1.04793,-0.425022 0.44301,0.05633 -5.72333,4.554194 -13.24497,4.973972 -21.87938,1.221071 -2.49484,-1.084367 -3.49617,-1.463035 -4.81641,-1.821381 l -0.62851,-0.170596 0.23478,0.27417 c 1.7737,2.071304 3.38949,3.924919 4.02668,4.619388 0.43435,0.473384 0.90383,0.99544 1.04329,1.160124 0.21613,0.255223 0.43276,0.378157 1.46755,0.832774 6.48438,2.848819 12.38107,3.338133 18.10875,1.502679 0.83551,-0.267734 2.43735,-0.89833 2.91721,-1.148417 0.37469,-0.195266 -0.8235,0.756109 -1.66442,1.321574 -4.71136,3.168079 -11.10929,3.762341 -17.48464,1.624034 -0.51881,-0.174015 -0.95086,-0.316384 -0.96009,-0.316384 -0.009,0 0.0938,0.242629 0.22889,0.539167 0.58274,1.278739 1.06319,3.012391 0.89201,3.218668 -0.12111,0.145923 -0.10206,0.151678 -0.77009,-0.232492 z M 127.8247,57.388379 c -2.78536,-0.675262 -3.73592,-4.170651 -1.66182,-6.110867 2.97591,-2.78382 7.50674,0.681235 5.63204,4.307235 -0.72069,1.393929 -2.43944,2.174742 -3.97022,1.803632 z"
       id="path1"
       sodipodi:nodetypes="ssssssssscsssscssscsssscssssssscssssscsssssssssssssssss"
       sodipodi:insensitive="true" /><path
       style="fill:#f6e546;fill-opacity:1;stroke:#000000;stroke-width:0.411173;stroke-dasharray:none;stroke-opacity:1"
       d="m 132.32048,83.991228 c -1.8579,-1.068425 -3.75936,-2.901133 -5.13352,-4.94788 -0.55533,-0.827136 -0.44004,-0.755626 -1.90525,-1.181685 -4.04202,-1.175342 -7.6324,-0.590397 -13.36139,1.746343 -0.27431,0.111885 -0.091,-0.05345 0.49395,-0.445451 4.43717,-2.973667 7.45667,-4.202179 12.10887,-3.56092 0.359,0.04949 0.65272,0.08032 0.65272,0.06853 0,-0.01179 -0.42382,-0.712412 -0.94184,-1.556928 -0.51801,-0.84452 -1.22673,-2.011802 -1.57493,-2.593959 l -0.63309,-1.058474 -1.47699,0.0054 c -3.10585,0.01132 -5.05328,0.443193 -10.79153,2.392938 -0.27272,0.09267 0.17068,-0.234583 1.0884,-0.803273 3.11961,-1.933178 6.0132,-2.962912 9.39978,-3.345089 l 0.75024,-0.08466 -0.77214,-1.363659 c -0.62106,-1.096844 -0.75581,-1.38334 -0.68868,-1.464224 0.13656,-0.164552 0.14515,-0.156943 1.51238,1.340934 l 1.31577,1.441496 0.43605,0.0381 c 0.23983,0.02094 0.67421,0.05666 0.96529,0.07934 0.29108,0.0227 0.85979,0.08928 1.26381,0.147973 0.73458,0.10673 0.73458,0.10673 1.13311,-0.07213 1.17749,-0.528425 2.51471,-0.530982 5.04767,-0.0097 5.17411,1.064935 7.57967,-0.407131 6.39499,-3.913385 -1.25916,-3.72673 -3.72691,-4.248981 -8.33553,-1.764079 -2.90226,1.564852 -5.63137,2.318445 -8.11858,2.241793 -1.23914,-0.03819 -1.45214,-0.111179 -0.86476,-0.296337 2.23094,-0.70324 4.693,-2.222767 7.70009,-4.752301 2.25677,-1.898383 3.31142,-2.625783 4.48822,-3.095588 7.9617,-3.178453 16.05682,11.756507 8.58656,15.841642 l -0.36783,0.201144 0.43763,0.04574 c 2.60069,0.271831 6.67174,-0.470922 9.76258,-1.781157 0.99859,-0.423312 1.03295,-0.418942 0.43668,0.05553 -5.64152,4.489094 -13.05565,4.902875 -21.56664,1.203615 -2.45918,-1.068863 -3.4462,-1.44212 -4.74756,-1.795342 l -0.61953,-0.168159 0.23142,0.27025 c 1.74835,2.0417 3.34104,3.868819 3.96913,4.553359 0.42814,0.466617 0.89091,0.981213 1.02837,1.143542 0.21304,0.251578 0.42658,0.372752 1.44659,0.820874 6.39168,2.808096 10.22335,3.354945 15.86917,1.545729 0.82356,-0.26391 2.40251,-0.885491 2.87551,-1.132002 0.36933,-0.192476 -0.81173,0.7453 -1.64062,1.302683 -4.64402,3.122794 -8.96977,3.644033 -15.25401,1.536292 -0.51138,-0.17153 -0.93725,-0.311866 -0.94636,-0.311866 -0.009,0 0.0924,0.239161 0.22563,0.531462 0.5744,1.260463 1.04799,2.969331 0.87925,3.172663 -0.11938,0.143836 -0.1006,0.149509 -0.75908,-0.229169 z m -4.12574,-26.518061 c -2.74556,-0.665608 -3.68253,-4.111035 -1.63808,-6.02352 2.93338,-2.744028 7.39946,0.671498 5.55155,4.245671 -0.71039,1.374 -2.40458,2.143655 -3.91347,1.777849 z"
       id="path51"
       sodipodi:nodetypes="ssssssssscsssscssscsssscssssssscssssscsssssssssssssssss" /><path
       style="fill:#f6e546;fill-opacity:1;stroke:#000000;stroke-width:0.436669;stroke-linejoin:round;stroke-dasharray:none;stroke-opacity:1"
       d="m 115.86576,88.058597 c 1.66136,-1.813177 5.2595,-2.989838 8.32023,-2.986495 5.35541,0.0058 7.03325,2.301101 11.57161,2.268328 4.53417,-0.03274 6.82756,-0.686264 8.80616,-1.401953 -1.33427,1.03375 -6.35519,2.887769 -8.80617,2.87265 -3.1038,-0.01917 -9.21226,-2.358096 -11.71758,-2.388151 -2.83775,-0.03405 -7.07373,0.785042 -8.17425,1.635621 z"
       id="path52"
       sodipodi:nodetypes="csscssc" /><path
       style="fill:#f6e546;fill-opacity:1;stroke:#000000;stroke-width:0.447454;stroke-linecap:round;stroke-linejoin:round;stroke-dasharray:none;stroke-opacity:1"
       d="m 121.65105,94.232445 c 1.06495,-0.866259 3.15209,-1.653189 5.11406,-1.651593 3.4329,0.0027 4.51002,1.061101 7.41758,1.010038 2.53184,-0.04446 3.28165,-0.156488 5.34833,-0.830856 -1.67002,1.108809 -3.75225,1.915343 -5.32337,1.908118 -1.98958,-0.0092 -5.85524,-1.101625 -7.46119,-1.115986 -1.81904,-0.01627 -4.38996,0.27391 -5.09541,0.680279 z"
       id="path52-2"
       sodipodi:nodetypes="csscssc" /><path
       style="fill:#000000;fill-opacity:1;stroke:#000000;stroke-width:0.411173;stroke-linecap:round;stroke-linejoin:round;stroke-dasharray:none;stroke-opacity:1"
       d="m 126.65764,78.388351 c 0,0 2.64193,3.182318 3.75066,3.992433 1.27577,0.932164 2.11734,1.713431 2.43998,0.90354 0.10121,0.422707 0.23127,1.090263 0.23127,1.090263 0,0 -2.6873,-1.603219 -3.56114,-2.419332 -1.19321,-1.168956 -2.86077,-3.566904 -2.86077,-3.566904 z"
       id="path61"
       sodipodi:nodetypes="cscccc" /><path
       style="display:inline;opacity:1;fill:#000000;fill-opacity:1;stroke:none;stroke-width:1.41097;stroke-dasharray:none;stroke-opacity:1"
       d="m 142.3822,247.69097 c -3.18241,1.39996 -7.96798,-1.74918 -9.67395,-5.48599 -1.95832,-4.28957 -1.10374,-9.27561 -1.10374,-9.27561 -10.48089,8.51011 -38.806302,-1.9628 -46.859527,4.41218 1.876798,-0.49351 37.355967,14.08229 51.097277,14.45709 2.36494,-1.47316 5.36915,-1.63939 6.53994,-4.10767 z"
       id="path53"
       sodipodi:nodetypes="cscccc"
       transform="matrix(0.29141065,0,0,0.29141066,100.68822,0)" /><path
       style="display:inline;opacity:1;fill:#000000;fill-opacity:1;stroke:#000000;stroke-width:1.35527;stroke-dasharray:none;stroke-opacity:1"
       d="m 69.944458,235.99951 -3.106748,-0.11972 c 3.869708,0.77946 -1.668454,5.60563 -9.985885,6.84432 6.029312,-1.1614 15.539084,-2.31935 16.403688,-0.97898 z"
       id="path54"
       sodipodi:nodetypes="ccccc"
       transform="matrix(0.29141065,0,0,0.29141066,100.68822,0)" /><path
       style="display:inline;opacity:1;fill:#000000;fill-opacity:1;stroke:#000000;stroke-width:1.41097;stroke-dasharray:none;stroke-opacity:1"
       d="m 68.48115,265.12279 c 2.992727,-0.0521 12.996226,-4.94776 6.727889,-6.33483 1.146682,0.14762 9.072341,1.48255 8.914253,1.13412 l 5.573307,10.07837 c -4.574144,-1.63746 -9.319883,-4.30347 -21.215449,-4.87766 z"
       id="path55"
       sodipodi:nodetypes="ccccc"
       transform="matrix(0.29141065,0,0,0.29141066,100.68822,0)" /><path
       style="display:inline;opacity:1;fill:#000000;fill-opacity:1;stroke:#000000;stroke-width:1.41097;stroke-dasharray:none;stroke-opacity:1"
       d="m 47.549192,267.54917 c 0.451555,1.46729 2.040444,1.50754 8.932734,-0.55092 -3.626217,1.01774 -16.206428,5.17492 -16.243003,5.18389 0,0 4.60418,-3.20453 7.310269,-4.63297 z"
       id="path56"
       sodipodi:nodetypes="cccc"
       transform="matrix(0.29141065,0,0,0.29141066,100.68822,0)" /><path
       style="display:inline;opacity:1;fill:#000000;fill-opacity:1;stroke:#000000;stroke-width:1.41097;stroke-dasharray:none;stroke-opacity:1"
       d="m 123.21663,236.30965 c 0,0 4.49443,-1.93014 4.38689,-6.32386 -0.10752,-4.39368 0.91042,-15.62213 -9.94811,-19.111 -5.27416,-1.69459 10.41254,1.72321 10.41254,1.72321 0,0 1.42657,5.04541 2.12316,6.75652 5.40647,13.28073 -0.34272,15.38457 -6.97448,16.95513 z"
       id="path57"
       sodipodi:nodetypes="csscsc"
       transform="matrix(0.29141065,0,0,0.29141066,100.68822,0)" /><path
       style="display:inline;opacity:1;fill:#000000;fill-opacity:1;stroke:#000000;stroke-width:1.41097;stroke-dasharray:none;stroke-opacity:1"
       d="m 67.248954,223.69291 c 0,0 21.5114,1.6775 38.849176,-15.40599 8.73554,-6.5575 21.30961,3.9487 22.24017,4.21999 -11.10728,-5.06801 -18.6826,-0.99179 -23.60989,1.3634 -4.927306,2.35521 -20.632182,9.13277 -24.231797,9.86612 -3.599588,0.73333 -16.376387,0.18301 -13.247659,-0.0434 6.453951,-0.4673 0,0 0,0 z"
       id="path58"
       sodipodi:nodetypes="cccccccc"
       transform="matrix(0.29141065,0,0,0.29141066,100.68822,0)" /><path
       style="display:inline;opacity:1;fill:#000000;fill-opacity:1;stroke:#000000;stroke-width:1.41097;stroke-linejoin:round;stroke-dasharray:none;stroke-opacity:1"
       d="m 74.908788,235.86953 6.457332,6.83581 c 0,0 13.580867,4.45616 16.246223,5.825 -13.685703,-5.90586 -14.449045,-12.37866 -8.354277,-10.62446 -5.66928,-1.59377 -14.349278,-2.03635 -14.349278,-2.03635 z"
       id="path59"
       sodipodi:nodetypes="ccccc"
       transform="matrix(0.29141065,0,0,0.29141066,100.68822,0)" /><path
       style="display:inline;opacity:1;fill:#000000;fill-opacity:1;stroke:#000000;stroke-width:1.41097;stroke-dasharray:none;stroke-opacity:1"
       d="m 107.36212,276.82748 c -2.92046,-4.89977 -2.14173,-6.17665 -7.743606,-13.04644 1.670606,1.23439 3.011306,2.45185 4.642496,2.9547 2.66151,4.84775 8.64275,12.68726 31.25549,15.00788 -15.68564,-0.16558 -28.15438,-4.91614 -28.15438,-4.91614"
       id="path60"
       sodipodi:nodetypes="ccccc"
       transform="matrix(0.29141065,0,0,0.29141066,100.68822,0)" /><path
       style="display:inline;opacity:1;fill:#000000;fill-opacity:1;stroke:#000000;stroke-width:1.41097;stroke-linecap:round;stroke-linejoin:round;stroke-dasharray:none;stroke-opacity:1"
       d="m 89.829673,175.7202 c -10.442322,11.48278 13.987157,26.74099 19.282767,12.2213 0,0 -5.88005,13.35336 -17.324339,7.10803 C 81.734204,189.56296 87.54887,179.6861 89.829673,175.7202 Z"
       id="path62"
       sodipodi:nodetypes="ccsc"
       transform="matrix(0.29141065,0,0,0.29141066,100.68822,0)" /><path
       id="rect85"
       style="font-variation-settings:normal;display:inline;opacity:1;fill:#000000;fill-opacity:1;stroke:#000000;stroke-width:3.61646;stroke-linecap:square;stroke-linejoin:miter;stroke-miterlimit:4;stroke-dasharray:none;stroke-dashoffset:0;stroke-opacity:1;paint-order:stroke fill markers"
       d="m 59.492839,124.34656 c -0.04701,0 -0.08476,0.0689 -0.08476,0.15399 v 18.98124 c 0,0.0852 0.03775,0.15399 0.08476,0.15399 h 5.308384 c -9e-6,-5.80487 4.753245,-10.51087 10.616297,-10.51082 5.863053,-5e-5 10.615835,4.70594 10.615826,10.51082 h 0.186003 3.071638 0.186004 c 0,-5.80488 4.752769,-10.51087 10.615829,-10.51082 5.4159,-5e-5 9.88143,4.01663 10.53153,9.20456 v 1.15227 c 0,0.0851 0.0378,0.15399 0.0848,0.15399 h 2.74484 0.5128 c 0,-5.80488 4.75277,-10.51087 10.61583,-10.51082 5.86306,-5e-5 10.61631,4.70595 10.6163,10.51082 h 5.30838 c 0.047,0 0.0848,-0.0688 0.0848,-0.15399 v -18.98124 c 0,-0.0851 -0.0378,-0.15399 -0.0848,-0.15399 h -5.32957 c -0.047,0 -0.0848,0.0688 -0.0848,0.15399 v 1.69427 h -21.02069 v -0.66914 c 0,-0.0851 -0.0378,-0.15351 -0.0848,-0.15351 h -0.53353 -2.74484 -0.0212 c -0.047,0 -0.0848,0.0683 -0.0848,0.15351 v 0.66914 H 89.582942 v -0.66914 c 0,-0.0851 -0.03824,-0.15351 -0.08523,-0.15351 h -0.206723 -3.071638 -0.206723 c -0.04701,0 -0.08523,0.0684 -0.08523,0.15351 v 0.66914 H 64.907174 v -1.69427 c 0,-0.0852 -0.03775,-0.15399 -0.08476,-0.15399 z"
       transform="matrix(0.29141065,0,0,0.29141066,100.68822,0)" /><path
       style="display:inline;fill:none;stroke:#000000;stroke-width:0.385513;stroke-linecap:square;stroke-dasharray:none;stroke-opacity:1;paint-order:stroke fill markers"
       d="m 116.36981,87.740653 c 0,0 5.83246,-1.336331 8.85002,-0.799873 2.93381,0.52157 7.85084,2.343644 11.02996,2.191639 4.12376,-0.197172 8.12191,-3.032656 8.12191,-3.032656"
       id="path65"
       sodipodi:nodetypes="cssc" /><path
       style="opacity:1;fill:#f6e546;fill-opacity:1;fill-rule:nonzero;stroke:#000000;stroke-width:0.385512;stroke-linecap:square;stroke-linejoin:round;stroke-dasharray:none;stroke-opacity:1;paint-order:normal"
       d="m 129.80323,100.09639 c -1.20542,-0.506034 -1.69931,-0.725482 -2.49374,-1.377466 2.21936,-0.272342 1.67798,0.923282 5.20995,0.125059 -0.92002,0.619961 -1.54061,0.716204 -2.71621,1.252407 z"
       id="path92"
       sodipodi:nodetypes="ccccc" /></g></svg>
